<svg xmlns="http://www.w3.org/2000/svg" version="1.1" xmlns:xlink="http://www.w3.org/1999/xlink" xmlns:svgjs="http://svgjs.dev/svgjs" viewBox="0 0 800 400"><path d="M400.44842529296875,19.730941772460938C396.1793680826823,26.236173248291017,375.5156962076823,33.38714391072591,381.6143493652344,48.43049240112305C387.71300252278644,63.47384089152018,420.239150390625,72.07174911499024,427.354248046875,86.0986557006836C434.469345703125,100.12556228637695,422.7623311360677,98.523171488444,413.0044860839844,110.31390380859375C403.24664103190105,122.1046361287435,392.8430460611979,122.86995605468749,384.304931640625,138.11659240722656C375.7668172200521,153.36322875976563,369.6442533365885,165.38116617838543,375.3363342285156,177.57847595214844C381.02841512044273,189.77578572591145,413.6861173502604,184.81315551757814,409.41705322265625,191.92825317382812C405.1479890950521,199.0433508300781,369.5126924641927,197.99103352864583,356.5022277832031,208.96861267089844C343.49176310221355,219.94619181315105,347.74888020833333,230.8041904703776,352.0179443359375,240.35874938964844C356.28700846354167,249.91330830891928,362.52916259765624,245.63228719075522,375.3363342285156,251.12107849121094C388.143505859375,256.60986979166665,391.8505155436198,260.508237508138,408.5201721191406,264.5740051269531C425.18982869466146,268.63977274576825,437.08820271809896,264.5859452311198,448.8789367675781,269.05828857421875C460.6696708170573,273.5306319173177,464.8071805826823,272.92077677408855,460.5381164550781,284.304931640625C456.26905232747396,295.68908650716145,443.86844645182293,306.88190185546875,430.0448303222656,319.2825012207031C416.2212141927083,331.6831005859375,408.0896891276042,327.0194380696615,399.55157470703125,339.0134582519531C391.0134602864583,351.0074784342448,394.00298828125,364.6756262207031,392.3766784667969,372.1972961425781" fill="none" stroke-width="1" stroke="url(&quot;#SvgjsLinearGradient1001&quot;)" stroke-linecap="round" transform="matrix(3.386354940899389,0,0,3.386354940899389,-966.4219719394055,-467.63996171971553)"></path><defs><linearGradient id="SvgjsLinearGradient1001"><stop stop-color="hsl(37, 99%, 67%)" offset="0"></stop><stop stop-color="hsl(316, 73%, 52%)" offset="1"></stop></linearGradient></defs></svg>